<svg width="22" height="28" viewBox="0 0 22 28" fill="none" xmlns="http://www.w3.org/2000/svg">
<path d="M19.9469 24C18.8403 25.6534 17.6669 27.2667 15.8803 27.2934C14.0936 27.3334 13.5203 26.24 11.4936 26.24C9.4536 26.24 8.82694 27.2667 7.1336 27.3334C5.38694 27.4 4.06694 25.5734 2.94694 23.96C0.666937 20.6667 -1.07973 14.6 1.26694 10.52C2.42694 8.49335 4.50694 7.21335 6.76027 7.17335C8.46694 7.14669 10.0936 8.33335 11.1469 8.33335C12.1869 8.33335 14.1603 6.90669 16.2269 7.12002C17.0936 7.16002 19.5203 7.46669 21.0803 9.76002C20.9603 9.84002 18.1869 11.4667 18.2136 14.84C18.2536 18.8667 21.7469 20.2134 21.7869 20.2267C21.7469 20.32 21.2269 22.1467 19.9469 24ZM12.3336 2.66669C13.3069 1.56002 14.9203 0.72002 16.2536 0.666687C16.4269 2.22669 15.8003 3.80002 14.8669 4.92002C13.9469 6.05335 12.4269 6.93335 10.9336 6.81335C10.7336 5.28002 11.4803 3.68002 12.3336 2.66669Z" fill="white"/>
</svg>
