<svg width="146" height="60" viewBox="0 0 146 60" fill="none" xmlns="http://www.w3.org/2000/svg">
<g clip-path="url(#clip0)">
<path d="M40.6812 31.9462L30.6752 56.4749L23.5907 38.9963L40.6812 31.9462Z" fill="white"/>
<path d="M47.6198 12.7785L30.7484 19.7552L38.6364 0H38.7094L47.6198 12.7785Z" fill="white"/>
<path d="M15.4837 26.0709L2.84842 31.2851L0 24.5287L9.42171 11.0159L15.4837 26.0709Z" fill="white"/>
<path d="M29.2876 60H14.7533L8.61823 45.0918L21.1075 39.951H21.1805L29.2876 60Z" fill="white"/>
<path d="M47.7659 14.3942L41.4117 30.0368L23.8099 37.2338L30.018 21.6647L47.7659 14.3942Z" fill="white"/>
<path d="M20.5964 38.6292L8.03408 43.7699L3.35974 32.6071L16.0681 27.3929L20.5964 38.6292Z" fill="white"/>
<path d="M60.5472 37.7478H62.2271L54.047 59.7062H52.7323L44.5522 37.7478H46.3051L53.3897 57.7233L60.5472 37.7478Z" fill="white"/>
<path d="M66.0249 59.7061H64.5642V43.4026H66.0249V59.7061Z" fill="white"/>
<path d="M81.5086 55.4467C81.5086 56.9155 80.9243 58.017 79.8288 58.8249C78.7332 59.6327 77.1264 59.9999 75.1544 59.9999C72.9633 59.9999 71.2835 59.6327 69.9688 58.9718V57.3561C71.5756 58.1639 73.3285 58.6046 75.1544 58.6046C76.7612 58.6046 78.0029 58.3108 78.8063 57.7967C79.6097 57.2826 80.0479 56.5483 80.0479 55.667C80.0479 54.8592 79.6827 54.1248 79.0254 53.6107C78.368 53.0232 77.2725 52.5091 75.7387 51.995C74.1319 51.4075 72.9633 50.8934 72.306 50.4528C71.6487 50.0121 71.1374 49.5715 70.8453 48.984C70.4801 48.4699 70.334 47.809 70.334 47.0011C70.334 45.7527 70.8453 44.7979 71.8678 44.137C72.8903 43.4026 74.278 43.0354 76.1769 43.0354C77.9298 43.0354 79.6097 43.3292 81.1434 43.9901L80.5591 45.312C78.9523 44.6511 77.4916 44.3573 76.1039 44.3573C74.7892 44.3573 73.7667 44.5776 72.9633 45.0183C72.1599 45.4589 71.7948 46.0464 71.7948 46.8543C71.7948 47.7355 72.0869 48.3965 72.6712 48.9106C73.2555 49.4246 74.4241 50.0121 76.1769 50.5997C77.6377 51.1137 78.7332 51.6278 79.3905 52.0685C80.0479 52.5091 80.5591 52.9497 80.9243 53.5372C81.2895 54.0513 81.5086 54.7123 81.5086 55.4467Z" fill="white"/>
<path d="M92.1721 59.9999C89.8349 59.9999 88.009 59.2655 86.6943 57.7967C85.3796 56.3279 84.7223 54.2716 84.7223 51.6278C84.7223 49.0574 85.3796 46.9277 86.6213 45.3855C87.8629 43.8432 89.6158 43.0354 91.7338 43.0354C93.6328 43.0354 95.1666 43.6964 96.2621 45.0183C97.3577 46.3402 97.9419 48.1762 97.9419 50.4528V51.6278H86.2561C86.2561 53.9044 86.7673 55.5935 87.7899 56.7686C88.8124 57.9436 90.2731 58.5311 92.1721 58.5311C93.1215 58.5311 93.9249 58.4577 94.5823 58.3108C95.3126 58.1639 96.1891 57.8702 97.2116 57.503V58.8249C96.2621 59.1921 95.4587 59.4858 94.6553 59.6327C93.998 59.9265 93.1215 59.9999 92.1721 59.9999ZM91.7338 44.3573C90.2001 44.3573 88.8854 44.8714 88.009 45.8995C87.0595 46.9277 86.5482 48.3965 86.3291 50.3793H96.4082C96.4082 48.4699 95.97 47.0011 95.1666 45.973C94.3632 44.9448 93.1946 44.3573 91.7338 44.3573Z" fill="white"/>
<path d="M105.976 59.7061L99.6948 43.4026H101.229L105.392 54.4919C105.976 55.8873 106.341 57.1358 106.633 58.2374H106.706C107.145 56.842 107.51 55.5935 107.948 54.4919L112.111 43.4026H113.645L107.364 59.7061H105.976Z" fill="white"/>
<path d="M122.994 59.9999C120.656 59.9999 118.831 59.2655 117.516 57.7967C116.201 56.3279 115.544 54.2716 115.544 51.6278C115.544 49.0574 116.201 46.9277 117.443 45.3855C118.684 43.8432 120.437 43.0354 122.555 43.0354C124.454 43.0354 125.988 43.6964 127.084 45.0183C128.179 46.3402 128.763 48.1762 128.763 50.4528V51.6278H117.078C117.078 53.9044 117.589 55.5935 118.611 56.7686C119.634 57.9436 121.095 58.5311 122.994 58.5311C123.943 58.5311 124.746 58.4577 125.404 58.3108C126.134 58.1639 127.011 57.8702 128.033 57.503V58.8249C127.084 59.1921 126.28 59.4858 125.477 59.6327C124.746 59.9265 123.943 59.9999 122.994 59.9999ZM122.555 44.3573C121.022 44.3573 119.707 44.8714 118.831 45.8995C117.881 46.9277 117.37 48.3965 117.151 50.3793H127.157C127.157 48.4699 126.718 47.0011 125.915 45.973C125.112 44.9448 124.016 44.3573 122.555 44.3573Z" fill="white"/>
<path d="M144.539 59.7062V49.1309C144.539 47.5152 144.174 46.2667 143.517 45.5323C142.859 44.7979 141.764 44.4308 140.303 44.4308C138.331 44.4308 136.943 44.9448 136.067 45.8995C135.191 46.8543 134.752 48.4699 134.752 50.6731V59.7062H133.292V43.4026H134.533L134.825 45.6058H134.898C135.921 43.9167 137.82 43.0354 140.522 43.0354C144.174 43.0354 146.073 45.0183 146.073 48.984V59.6327H144.539V59.7062Z" fill="white"/>
<path d="M69.3116 32.7539L68.07 38.9963L64.6373 41.9338V37.8212L69.3116 32.7539Z" fill="white"/>
<path opacity="0.8" d="M69.3116 32.7539L64.6373 41.9338L68.07 38.9963L69.3116 32.7539Z" fill="white"/>
<path opacity="0.5" d="M64.6373 37.8213L68.07 38.9963L64.6373 41.9339V37.8213Z" fill="white"/>
</g>
<defs>
<clipPath id="clip0">
<rect width="146" height="60" fill="white"/>
</clipPath>
</defs>
</svg>
